# xmcd
#
# Track frame offsets:
#	150
#	14320
#	37597
#	54705
#	67992
#	86452
#	102620
#	129892
#	145847
#	158330
#	173560
#
# Disc length: 2538 seconds
# Revision: 6
# Processed by: cddbd v1.5.2PL0 Copyright (c) Steve Scherf et al.
# Submitted via: dBpowerAMP V12.0
#
DISCID=7b09e80b
DTITLE=Love Sculpture - Blues Helping
DYEAR=1968
DGENRE=Blues
TTITLE0=Stumble
TTITLE1=3 O'Clock Blues
TTITLE2=I Believe to My Soul
TTITLE3=So Unkind
TTITLE4=Summertime
TTITLE5=On the Road Again
TTITLE6=Don't Answer the Door
TTITLE7=Wang Dang Doodle
TTITLE8=Come Back Baby
TTITLE9=Shake Your Hips
TTITLE10=Blues Helping
EXTD=
EXTT0=
EXTT1=
EXTT2=
EXTT3=
EXTT4=
EXTT5=
EXTT6=
EXTT7=
EXTT8=
EXTT9=
EXTT10=
PLAYORDER=
